<svg width="1280" height="738" viewBox="0 0 1280 738" fill="none" xmlns="http://www.w3.org/2000/svg">
<path d="M499.728 80H494.896V78.528H496.4V70.304H494.896V68.832H499.728V70.304H498.208V78.528H499.728V80ZM503.617 80H501.873V71.68H503.617V73.056H503.697C503.878 72.608 504.15 72.2347 504.513 71.936C504.886 71.6373 505.393 71.488 506.033 71.488C506.886 71.488 507.548 71.7707 508.017 72.336C508.497 72.9013 508.737 73.696 508.737 74.72V80H506.993V74.928C506.993 74.2773 506.865 73.792 506.609 73.472C506.364 73.1413 505.969 72.976 505.425 72.976C505.116 72.976 504.822 73.0293 504.545 73.136C504.278 73.232 504.054 73.3867 503.873 73.6C503.702 73.8133 503.617 74.08 503.617 74.4V80ZM512.034 70.192C511.672 70.192 511.405 70.1067 511.234 69.936C511.074 69.7653 510.994 69.5467 510.994 69.28V69.008C510.994 68.7413 511.074 68.5227 511.234 68.352C511.405 68.1813 511.672 68.096 512.034 68.096C512.397 68.096 512.658 68.1813 512.818 68.352C512.978 68.5227 513.058 68.7413 513.058 69.008V69.28C513.058 69.5467 512.978 69.7653 512.818 69.936C512.658 70.1067 512.397 70.192 512.034 70.192ZM511.154 80V71.68H512.898V80H511.154ZM518.605 80.192C517.399 80.192 516.466 79.8027 515.805 79.024C515.143 78.2347 514.813 77.1733 514.813 75.84C514.813 74.5067 515.143 73.4507 515.805 72.672C516.466 71.8827 517.399 71.488 518.605 71.488C519.437 71.488 520.119 71.6747 520.653 72.048C521.186 72.4213 521.57 72.9173 521.805 73.536L520.365 74.208C520.247 73.824 520.039 73.52 519.741 73.296C519.442 73.0613 519.063 72.944 518.605 72.944C517.965 72.944 517.479 73.1467 517.149 73.552C516.818 73.9467 516.653 74.464 516.653 75.104V76.576C516.653 77.216 516.818 77.7387 517.149 78.144C517.479 78.5493 517.965 78.752 518.605 78.752C519.106 78.752 519.511 78.6293 519.821 78.384C520.13 78.128 520.375 77.792 520.557 77.376L521.869 78.08C521.602 78.7627 521.191 79.2853 520.637 79.648C520.082 80.0107 519.405 80.192 518.605 80.192ZM524.409 70.192C524.047 70.192 523.78 70.1067 523.609 69.936C523.449 69.7653 523.369 69.5467 523.369 69.28V69.008C523.369 68.7413 523.449 68.5227 523.609 68.352C523.78 68.1813 524.047 68.096 524.409 68.096C524.772 68.096 525.033 68.1813 525.193 68.352C525.353 68.5227 525.433 68.7413 525.433 69.008V69.28C525.433 69.5467 525.353 69.7653 525.193 69.936C525.033 70.1067 524.772 70.192 524.409 70.192ZM523.529 80V71.68H525.273V80H523.529ZM531.012 80.192C530.233 80.192 529.556 80.016 528.98 79.664C528.414 79.3013 527.972 78.7947 527.652 78.144C527.342 77.4933 527.188 76.7253 527.188 75.84C527.188 74.9547 527.342 74.1867 527.652 73.536C527.972 72.8853 528.414 72.384 528.98 72.032C529.556 71.6693 530.233 71.488 531.012 71.488C531.78 71.488 532.446 71.6693 533.012 72.032C533.588 72.384 534.03 72.8853 534.34 73.536C534.66 74.1867 534.82 74.9547 534.82 75.84C534.82 76.7253 534.66 77.4933 534.34 78.144C534.03 78.7947 533.588 79.3013 533.012 79.664C532.446 80.016 531.78 80.192 531.012 80.192ZM531.012 78.736C531.609 78.736 532.084 78.5547 532.436 78.192C532.798 77.8187 532.98 77.2693 532.98 76.544V75.136C532.98 74.4107 532.798 73.8667 532.436 73.504C532.084 73.1307 531.609 72.944 531.012 72.944C530.425 72.944 529.945 73.1307 529.572 73.504C529.209 73.8667 529.028 74.4107 529.028 75.136V76.544C529.028 77.2693 529.209 77.8187 529.572 78.192C529.945 78.5547 530.425 78.736 531.012 78.736Z" fill="url(#paint0_linear_281_430)"/>
<path d="M629.032 80L625.384 73.84L624.152 71.456H624.104V73.888V80H622.376V68.832H624.408L628.04 74.992L629.272 77.376H629.32V74.944V68.832H631.048V80H629.032ZM636.918 80.192C636.139 80.192 635.462 80.016 634.886 79.664C634.321 79.3013 633.878 78.7947 633.558 78.144C633.249 77.4933 633.094 76.7253 633.094 75.84C633.094 74.9547 633.249 74.1867 633.558 73.536C633.878 72.8853 634.321 72.384 634.886 72.032C635.462 71.6693 636.139 71.488 636.918 71.488C637.686 71.488 638.353 71.6693 638.918 72.032C639.494 72.384 639.937 72.8853 640.246 73.536C640.566 74.1867 640.726 74.9547 640.726 75.84C640.726 76.7253 640.566 77.4933 640.246 78.144C639.937 78.7947 639.494 79.3013 638.918 79.664C638.353 80.016 637.686 80.192 636.918 80.192ZM636.918 78.736C637.515 78.736 637.99 78.5547 638.342 78.192C638.705 77.8187 638.886 77.2693 638.886 76.544V75.136C638.886 74.4107 638.705 73.8667 638.342 73.504C637.99 73.1307 637.515 72.944 636.918 72.944C636.331 72.944 635.851 73.1307 635.478 73.504C635.115 73.8667 634.934 74.4107 634.934 75.136V76.544C634.934 77.2693 635.115 77.8187 635.478 78.192C635.851 78.5547 636.331 78.736 636.918 78.736ZM645.294 80.192C644.516 80.192 643.854 80.0533 643.31 79.776C642.777 79.4987 642.313 79.1147 641.918 78.624L643.038 77.6C643.348 77.9627 643.689 78.2507 644.062 78.464C644.446 78.6773 644.889 78.784 645.39 78.784C645.902 78.784 646.281 78.688 646.526 78.496C646.782 78.2933 646.91 78.016 646.91 77.664C646.91 77.3973 646.82 77.1733 646.638 76.992C646.468 76.8107 646.164 76.688 645.726 76.624L644.958 76.528C644.404 76.4427 643.918 76.304 643.502 76.112C643.086 75.92 642.766 75.6587 642.542 75.328C642.329 74.9867 642.222 74.56 642.222 74.048C642.222 73.2373 642.505 72.608 643.07 72.16C643.646 71.712 644.393 71.488 645.31 71.488C645.812 71.488 646.249 71.5413 646.622 71.648C646.996 71.7547 647.326 71.9093 647.614 72.112C647.902 72.304 648.169 72.5387 648.414 72.816L647.342 73.84C647.129 73.584 646.846 73.3653 646.494 73.184C646.153 72.992 645.758 72.896 645.31 72.896C644.841 72.896 644.489 72.992 644.254 73.184C644.02 73.3653 643.902 73.616 643.902 73.936C643.902 74.256 644.004 74.496 644.206 74.656C644.42 74.816 644.745 74.9333 645.182 75.008L645.95 75.104C646.868 75.2427 647.534 75.5147 647.95 75.92C648.377 76.3147 648.59 76.848 648.59 77.52C648.59 78.0533 648.452 78.5227 648.174 78.928C647.908 79.3227 647.529 79.632 647.038 79.856C646.548 80.08 645.966 80.192 645.294 80.192ZM653.809 80.192C653.03 80.192 652.353 80.016 651.777 79.664C651.211 79.3013 650.769 78.7947 650.449 78.144C650.139 77.4933 649.985 76.7253 649.985 75.84C649.985 74.9547 650.139 74.1867 650.449 73.536C650.769 72.8853 651.211 72.384 651.777 72.032C652.353 71.6693 653.03 71.488 653.809 71.488C654.577 71.488 655.243 71.6693 655.809 72.032C656.385 72.384 656.827 72.8853 657.137 73.536C657.457 74.1867 657.617 74.9547 657.617 75.84C657.617 76.7253 657.457 77.4933 657.137 78.144C656.827 78.7947 656.385 79.3013 655.809 79.664C655.243 80.016 654.577 80.192 653.809 80.192ZM653.809 78.736C654.406 78.736 654.881 78.5547 655.233 78.192C655.595 77.8187 655.777 77.2693 655.777 76.544V75.136C655.777 74.4107 655.595 73.8667 655.233 73.504C654.881 73.1307 654.406 72.944 653.809 72.944C653.222 72.944 652.742 73.1307 652.369 73.504C652.006 73.8667 651.825 74.4107 651.825 75.136V76.544C651.825 77.2693 652.006 77.8187 652.369 78.192C652.742 78.5547 653.222 78.736 653.809 78.736ZM663.322 80H661.802C661.205 80 660.746 79.84 660.426 79.52C660.117 79.1893 659.962 78.7413 659.962 78.176V73.104H658.666V71.68H659.37C659.658 71.68 659.855 71.616 659.962 71.488C660.079 71.36 660.138 71.152 660.138 70.864V69.408H661.706V71.68H663.45V73.104H661.706V78.576H663.322V80ZM667.086 80H665.342V71.68H667.086V73.328H667.166C667.251 73.0507 667.384 72.7893 667.566 72.544C667.758 72.288 668.008 72.08 668.318 71.92C668.627 71.76 669.006 71.68 669.454 71.68H669.918V73.36H669.23C668.771 73.36 668.382 73.4133 668.062 73.52C667.742 73.6267 667.496 73.776 667.326 73.968C667.166 74.16 667.086 74.4 667.086 74.688V80ZM674.637 80.192C673.858 80.192 673.181 80.016 672.605 79.664C672.039 79.3013 671.597 78.7947 671.277 78.144C670.967 77.4933 670.813 76.7253 670.813 75.84C670.813 74.9547 670.967 74.1867 671.277 73.536C671.597 72.8853 672.039 72.384 672.605 72.032C673.181 71.6693 673.858 71.488 674.637 71.488C675.405 71.488 676.071 71.6693 676.637 72.032C677.213 72.384 677.655 72.8853 677.965 73.536C678.285 74.1867 678.445 74.9547 678.445 75.84C678.445 76.7253 678.285 77.4933 677.965 78.144C677.655 78.7947 677.213 79.3013 676.637 79.664C676.071 80.016 675.405 80.192 674.637 80.192ZM674.637 78.736C675.234 78.736 675.709 78.5547 676.061 78.192C676.423 77.8187 676.605 77.2693 676.605 76.544V75.136C676.605 74.4107 676.423 73.8667 676.061 73.504C675.709 73.1307 675.234 72.944 674.637 72.944C674.05 72.944 673.57 73.1307 673.197 73.504C672.834 73.8667 672.653 74.4107 672.653 75.136V76.544C672.653 77.2693 672.834 77.8187 673.197 78.192C673.57 78.5547 674.05 78.736 674.637 78.736ZM683.013 80.192C682.234 80.192 681.573 80.0533 681.029 79.776C680.496 79.4987 680.032 79.1147 679.637 78.624L680.757 77.6C681.066 77.9627 681.408 78.2507 681.781 78.464C682.165 78.6773 682.608 78.784 683.109 78.784C683.621 78.784 684 78.688 684.245 78.496C684.501 78.2933 684.629 78.016 684.629 77.664C684.629 77.3973 684.538 77.1733 684.357 76.992C684.186 76.8107 683.882 76.688 683.445 76.624L682.677 76.528C682.122 76.4427 681.637 76.304 681.221 76.112C680.805 75.92 680.485 75.6587 680.261 75.328C680.048 74.9867 679.941 74.56 679.941 74.048C679.941 73.2373 680.224 72.608 680.789 72.16C681.365 71.712 682.112 71.488 683.029 71.488C683.53 71.488 683.968 71.5413 684.341 71.648C684.714 71.7547 685.045 71.9093 685.333 72.112C685.621 72.304 685.888 72.5387 686.133 72.816L685.061 73.84C684.848 73.584 684.565 73.3653 684.213 73.184C683.872 72.992 683.477 72.896 683.029 72.896C682.56 72.896 682.208 72.992 681.973 73.184C681.738 73.3653 681.621 73.616 681.621 73.936C681.621 74.256 681.722 74.496 681.925 74.656C682.138 74.816 682.464 74.9333 682.901 75.008L683.669 75.104C684.586 75.2427 685.253 75.5147 685.669 75.92C686.096 76.3147 686.309 76.848 686.309 77.52C686.309 78.0533 686.17 78.5227 685.893 78.928C685.626 79.3227 685.248 79.632 684.757 79.856C684.266 80.08 683.685 80.192 683.013 80.192Z" fill="url(#paint1_linear_281_430)"/>
<path d="M767.184 80H765.376V68.832H772.352V70.432H767.184V73.552H771.776V75.152H767.184V80ZM779.007 80V78.624H778.927C778.777 79.04 778.521 79.408 778.159 79.728C777.807 80.0373 777.284 80.192 776.591 80.192C775.748 80.192 775.087 79.9147 774.607 79.36C774.127 78.7947 773.887 78 773.887 76.976V71.68H775.631V76.752C775.631 77.392 775.759 77.8827 776.015 78.224C776.281 78.5547 776.681 78.72 777.215 78.72C777.524 78.72 777.812 78.6667 778.079 78.56C778.356 78.4533 778.58 78.2933 778.751 78.08C778.921 77.8667 779.007 77.6 779.007 77.28V71.68H780.751V80H779.007ZM784.992 80H783.248V71.68H784.992V73.056H785.072C785.253 72.608 785.525 72.2347 785.888 71.936C786.261 71.6373 786.768 71.488 787.408 71.488C788.261 71.488 788.923 71.7707 789.392 72.336C789.872 72.9013 790.112 73.696 790.112 74.72V80H788.368V74.928C788.368 74.2773 788.24 73.792 787.984 73.472C787.739 73.1413 787.344 72.976 786.8 72.976C786.491 72.976 786.197 73.0293 785.92 73.136C785.653 73.232 785.429 73.3867 785.248 73.6C785.077 73.8133 784.992 74.08 784.992 74.4V80ZM795.745 80.192C794.54 80.192 793.607 79.8027 792.945 79.024C792.284 78.2347 791.953 77.1733 791.953 75.84C791.953 74.5067 792.284 73.4507 792.945 72.672C793.607 71.8827 794.54 71.488 795.745 71.488C796.577 71.488 797.26 71.6747 797.793 72.048C798.327 72.4213 798.711 72.9173 798.945 73.536L797.505 74.208C797.388 73.824 797.18 73.52 796.881 73.296C796.583 73.0613 796.204 72.944 795.745 72.944C795.105 72.944 794.62 73.1467 794.289 73.552C793.959 73.9467 793.793 74.464 793.793 75.104V76.576C793.793 77.216 793.959 77.7387 794.289 78.144C794.62 78.5493 795.105 78.752 795.745 78.752C796.247 78.752 796.652 78.6293 796.961 78.384C797.271 78.128 797.516 77.792 797.697 77.376L799.009 78.08C798.743 78.7627 798.332 79.2853 797.777 79.648C797.223 80.0107 796.545 80.192 795.745 80.192ZM801.55 70.192C801.187 70.192 800.921 70.1067 800.75 69.936C800.59 69.7653 800.51 69.5467 800.51 69.28V69.008C800.51 68.7413 800.59 68.5227 800.75 68.352C800.921 68.1813 801.187 68.096 801.55 68.096C801.913 68.096 802.174 68.1813 802.334 68.352C802.494 68.5227 802.574 68.7413 802.574 69.008V69.28C802.574 69.5467 802.494 69.7653 802.334 69.936C802.174 70.1067 801.913 70.192 801.55 70.192ZM800.67 80V71.68H802.414V80H800.67ZM808.152 80.192C807.374 80.192 806.696 80.016 806.12 79.664C805.555 79.3013 805.112 78.7947 804.792 78.144C804.483 77.4933 804.328 76.7253 804.328 75.84C804.328 74.9547 804.483 74.1867 804.792 73.536C805.112 72.8853 805.555 72.384 806.12 72.032C806.696 71.6693 807.374 71.488 808.152 71.488C808.92 71.488 809.587 71.6693 810.152 72.032C810.728 72.384 811.171 72.8853 811.48 73.536C811.8 74.1867 811.96 74.9547 811.96 75.84C811.96 76.7253 811.8 77.4933 811.48 78.144C811.171 78.7947 810.728 79.3013 810.152 79.664C809.587 80.016 808.92 80.192 808.152 80.192ZM808.152 78.736C808.75 78.736 809.224 78.5547 809.576 78.192C809.939 77.8187 810.12 77.2693 810.12 76.544V75.136C810.12 74.4107 809.939 73.8667 809.576 73.504C809.224 73.1307 808.75 72.944 808.152 72.944C807.566 72.944 807.086 73.1307 806.712 73.504C806.35 73.8667 806.168 74.4107 806.168 75.136V76.544C806.168 77.2693 806.35 77.8187 806.712 78.192C807.086 78.5547 807.566 78.736 808.152 78.736ZM810.2 68.016L808.312 70.688L807.224 70.16L808.68 67.28L810.2 68.016ZM815.633 80H813.889V71.68H815.633V73.056H815.713C815.894 72.608 816.166 72.2347 816.529 71.936C816.902 71.6373 817.409 71.488 818.049 71.488C818.902 71.488 819.563 71.7707 820.033 72.336C820.513 72.9013 820.753 73.696 820.753 74.72V80H819.009V74.928C819.009 74.2773 818.881 73.792 818.625 73.472C818.379 73.1413 817.985 72.976 817.441 72.976C817.131 72.976 816.838 73.0293 816.561 73.136C816.294 73.232 816.07 73.3867 815.889 73.6C815.718 73.8133 815.633 74.08 815.633 74.4V80Z" fill="url(#paint2_linear_281_430)"/>
<path d="M902.568 80.192C901.597 80.192 900.76 79.9787 900.056 79.552C899.352 79.1147 898.813 78.4747 898.44 77.632C898.067 76.7893 897.88 75.7387 897.88 74.48C897.88 73.232 898.067 72.176 898.44 71.312C898.813 70.4373 899.352 69.776 900.056 69.328C900.76 68.8693 901.597 68.64 902.568 68.64C903.528 68.64 904.333 68.8533 904.984 69.28C905.645 69.7067 906.168 70.336 906.552 71.168L905.032 72C904.84 71.4667 904.541 71.0453 904.136 70.736C903.741 70.416 903.219 70.256 902.568 70.256C901.704 70.256 901.027 70.5547 900.536 71.152C900.045 71.7493 899.8 72.5653 899.8 73.6V75.312C899.8 76.336 900.045 77.136 900.536 77.712C901.027 78.288 901.704 78.576 902.568 78.576C903.229 78.576 903.773 78.4053 904.2 78.064C904.627 77.712 904.941 77.264 905.144 76.72L906.6 77.6C906.227 78.4 905.699 79.0347 905.016 79.504C904.344 79.9627 903.528 80.192 902.568 80.192ZM915.461 80H914.485C914.165 80 913.887 79.9307 913.653 79.792C913.429 79.6427 913.258 79.4347 913.141 79.168C913.023 78.9013 912.965 78.5867 912.965 78.224V78.08L913.461 78.608H912.901C912.741 79.12 912.447 79.5147 912.021 79.792C911.594 80.0587 911.077 80.192 910.469 80.192C909.615 80.192 908.954 79.968 908.485 79.52C908.015 79.072 907.781 78.4693 907.781 77.712C907.781 77.1573 907.914 76.6987 908.181 76.336C908.458 75.9627 908.858 75.6853 909.381 75.504C909.903 75.312 910.554 75.216 911.333 75.216H912.837V74.512C912.837 74.0107 912.698 73.6213 912.421 73.344C912.143 73.056 911.711 72.912 911.125 72.912C910.645 72.912 910.245 73.024 909.925 73.248C909.615 73.4613 909.354 73.728 909.141 74.048L908.101 73.104C908.378 72.6347 908.767 72.2507 909.269 71.952C909.781 71.6427 910.437 71.488 911.237 71.488C912.303 71.488 913.125 71.744 913.701 72.256C914.287 72.7573 914.581 73.472 914.581 74.4V78.576H915.461V80ZM912.837 76.336H911.365C910.757 76.336 910.303 76.432 910.005 76.624C909.706 76.816 909.557 77.0933 909.557 77.456V77.744C909.557 78.1067 909.685 78.384 909.941 78.576C910.197 78.768 910.538 78.864 910.965 78.864C911.327 78.864 911.647 78.8107 911.925 78.704C912.202 78.5973 912.421 78.4427 912.581 78.24C912.751 78.0373 912.837 77.8027 912.837 77.536V76.336ZM917.17 81.776V71.68H918.914V81.12C918.914 81.76 918.749 82.2667 918.418 82.64C918.098 83.0133 917.586 83.2 916.882 83.2H915.874V81.776H917.17ZM918.05 70.192C917.687 70.192 917.421 70.1067 917.25 69.936C917.09 69.7653 917.01 69.5467 917.01 69.28V69.008C917.01 68.7413 917.09 68.5227 917.25 68.352C917.421 68.1813 917.687 68.096 918.05 68.096C918.413 68.096 918.674 68.1813 918.834 68.352C918.994 68.5227 919.074 68.7413 919.074 69.008V69.28C919.074 69.5467 918.994 69.7653 918.834 69.936C918.674 70.1067 918.413 70.192 918.05 70.192ZM928.476 80H927.5C927.18 80 926.903 79.9307 926.668 79.792C926.444 79.6427 926.274 79.4347 926.156 79.168C926.039 78.9013 925.98 78.5867 925.98 78.224V78.08L926.476 78.608H925.916C925.756 79.12 925.463 79.5147 925.036 79.792C924.61 80.0587 924.092 80.192 923.484 80.192C922.631 80.192 921.97 79.968 921.5 79.52C921.031 79.072 920.796 78.4693 920.796 77.712C920.796 77.1573 920.93 76.6987 921.196 76.336C921.474 75.9627 921.874 75.6853 922.396 75.504C922.919 75.312 923.57 75.216 924.348 75.216H925.852V74.512C925.852 74.0107 925.714 73.6213 925.436 73.344C925.159 73.056 924.727 72.912 924.14 72.912C923.66 72.912 923.26 73.024 922.94 73.248C922.631 73.4613 922.37 73.728 922.156 74.048L921.116 73.104C921.394 72.6347 921.783 72.2507 922.284 71.952C922.796 71.6427 923.452 71.488 924.252 71.488C925.319 71.488 926.14 71.744 926.716 72.256C927.303 72.7573 927.596 73.472 927.596 74.4V78.576H928.476V80ZM925.852 76.336H924.38C923.772 76.336 923.319 76.432 923.02 76.624C922.722 76.816 922.572 77.0933 922.572 77.456V77.744C922.572 78.1067 922.7 78.384 922.956 78.576C923.212 78.768 923.554 78.864 923.98 78.864C924.343 78.864 924.663 78.8107 924.94 78.704C925.218 78.5973 925.436 78.4427 925.596 78.24C925.767 78.0373 925.852 77.8027 925.852 77.536V76.336Z" fill="url(#paint3_linear_281_430)"/>
<path d="M1021.21 80H1019.32L1018.34 76.976H1014.17L1013.18 80H1011.35L1015.16 68.832H1017.42L1021.21 80ZM1017.9 75.424L1016.79 72.112L1016.28 70.496H1016.2L1015.69 72.112L1014.58 75.424H1017.9ZM1022.81 83.2V71.68H1024.55V73.056H1024.63C1024.81 72.5547 1025.1 72.1707 1025.51 71.904C1025.93 71.6267 1026.42 71.488 1026.97 71.488C1027.67 71.488 1028.27 71.664 1028.76 72.016C1029.25 72.3573 1029.63 72.8533 1029.88 73.504C1030.15 74.144 1030.28 74.9227 1030.28 75.84C1030.28 76.7467 1030.15 77.5253 1029.88 78.176C1029.63 78.8267 1029.25 79.328 1028.76 79.68C1028.27 80.0213 1027.67 80.192 1026.97 80.192C1026.42 80.192 1025.94 80.0533 1025.53 79.776C1025.13 79.4987 1024.83 79.1147 1024.63 78.624H1024.55V83.2H1022.81ZM1026.44 78.72C1027.05 78.72 1027.54 78.5227 1027.9 78.128C1028.26 77.7227 1028.44 77.2 1028.44 76.56V75.12C1028.44 74.48 1028.26 73.9627 1027.9 73.568C1027.54 73.1733 1027.05 72.976 1026.44 72.976C1026.09 72.976 1025.77 73.0347 1025.48 73.152C1025.21 73.2693 1024.98 73.4347 1024.81 73.648C1024.64 73.8613 1024.55 74.112 1024.55 74.4V77.216C1024.55 77.536 1024.64 77.808 1024.81 78.032C1024.98 78.2453 1025.21 78.416 1025.48 78.544C1025.77 78.6613 1026.09 78.72 1026.44 78.72ZM1032.28 83.2V71.68H1034.02V73.056H1034.1C1034.27 72.5547 1034.57 72.1707 1034.98 71.904C1035.4 71.6267 1035.88 71.488 1036.44 71.488C1037.14 71.488 1037.74 71.664 1038.23 72.016C1038.72 72.3573 1039.1 72.8533 1039.35 73.504C1039.62 74.144 1039.75 74.9227 1039.75 75.84C1039.75 76.7467 1039.62 77.5253 1039.35 78.176C1039.1 78.8267 1038.72 79.328 1038.23 79.68C1037.74 80.0213 1037.14 80.192 1036.44 80.192C1035.88 80.192 1035.4 80.0533 1035 79.776C1034.59 79.4987 1034.3 79.1147 1034.1 78.624H1034.02V83.2H1032.28ZM1035.91 78.72C1036.52 78.72 1037 78.5227 1037.37 78.128C1037.73 77.7227 1037.91 77.2 1037.91 76.56V75.12C1037.91 74.48 1037.73 73.9627 1037.37 73.568C1037 73.1733 1036.52 72.976 1035.91 72.976C1035.56 72.976 1035.24 73.0347 1034.95 73.152C1034.67 73.2693 1034.45 73.4347 1034.28 73.648C1034.11 73.8613 1034.02 74.112 1034.02 74.4V77.216C1034.02 77.536 1034.11 77.808 1034.28 78.032C1034.45 78.2453 1034.67 78.416 1034.95 78.544C1035.24 78.6613 1035.56 78.72 1035.91 78.72Z" fill="url(#paint4_linear_281_430)"/>
<defs>
<linearGradient id="paint0_linear_281_430" x1="494" y1="73.5" x2="601" y2="73.5" gradientUnits="userSpaceOnUse">
<stop offset="0.264423" stop-color="#9644B5"/>
<stop offset="0.5" stop-color="#CD8DDC"/>
<stop offset="0.980769" stop-color="#FDCDFF"/>
</linearGradient>
<linearGradient id="paint1_linear_281_430" x1="621" y1="73.5" x2="744" y2="73.5" gradientUnits="userSpaceOnUse">
<stop offset="0.264423" stop-color="#9644B5"/>
<stop offset="0.5" stop-color="#CD8DDC"/>
<stop offset="0.980769" stop-color="#FDCDFF"/>
</linearGradient>
<linearGradient id="paint2_linear_281_430" x1="764" y1="73.5" x2="877" y2="73.5" gradientUnits="userSpaceOnUse">
<stop offset="0.264423" stop-color="#9644B5"/>
<stop offset="0.5" stop-color="#CD8DDC"/>
<stop offset="0.980769" stop-color="#FDCDFF"/>
</linearGradient>
<linearGradient id="paint3_linear_281_430" x1="897" y1="73.5" x2="957" y2="73.5" gradientUnits="userSpaceOnUse">
<stop offset="0.264423" stop-color="#9644B5"/>
<stop offset="0.5" stop-color="#CD8DDC"/>
<stop offset="0.980769" stop-color="#FDCDFF"/>
</linearGradient>
<linearGradient id="paint4_linear_281_430" x1="1011" y1="73.5" x2="1096" y2="73.5" gradientUnits="userSpaceOnUse">
<stop offset="0.264423" stop-color="#9644B5"/>
<stop offset="0.5" stop-color="#CD8DDC"/>
<stop offset="0.980769" stop-color="#FDCDFF"/>
</linearGradient>
</defs>
</svg>
