<svg width="1280" height="738" viewBox="0 0 1280 738" fill="none" xmlns="http://www.w3.org/2000/svg">
<path d="M494.992 79V67.96H497.472V79H494.992ZM504.613 79V74.136C504.613 73.5707 504.474 73.144 504.197 72.856C503.93 72.5573 503.583 72.408 503.157 72.408C502.73 72.408 502.378 72.5573 502.101 72.856C501.834 73.144 501.701 73.5707 501.701 74.136H501.285C501.285 73.3147 501.402 72.6213 501.637 72.056C501.871 71.48 502.202 71.0427 502.629 70.744C503.066 70.4453 503.578 70.296 504.165 70.296C504.719 70.296 505.21 70.4293 505.637 70.696C506.063 70.9627 506.394 71.3467 506.629 71.848C506.874 72.3493 506.997 72.952 506.997 73.656V79H504.613ZM499.317 79V70.52H501.701V79H499.317ZM508.692 79V70.52H511.076V79H508.692ZM509.892 69.592C509.54 69.592 509.246 69.48 509.012 69.256C508.788 69.032 508.676 68.7387 508.676 68.376C508.676 68.0027 508.788 67.7147 509.012 67.512C509.246 67.2987 509.54 67.192 509.892 67.192C510.233 67.192 510.521 67.2987 510.756 67.512C510.99 67.7147 511.108 68.0027 511.108 68.376C511.108 68.7387 510.99 69.032 510.756 69.256C510.521 69.48 510.233 69.592 509.892 69.592ZM516.498 79.224C515.687 79.224 514.973 79.0373 514.354 78.664C513.735 78.2907 513.25 77.768 512.898 77.096C512.546 76.424 512.37 75.6453 512.37 74.76C512.37 73.864 512.546 73.0853 512.898 72.424C513.25 71.752 513.735 71.2293 514.354 70.856C514.973 70.4827 515.687 70.296 516.498 70.296C517.511 70.296 518.359 70.568 519.042 71.112C519.735 71.6453 520.183 72.3813 520.386 73.32L518.018 73.848C517.954 73.3787 517.789 73.0267 517.522 72.792C517.266 72.5467 516.925 72.424 516.498 72.424C515.997 72.424 515.591 72.6213 515.282 73.016C514.973 73.4107 514.818 73.992 514.818 74.76C514.818 75.528 514.973 76.1093 515.282 76.504C515.591 76.8987 515.997 77.096 516.498 77.096C516.925 77.096 517.277 76.9787 517.554 76.744C517.831 76.5093 518.007 76.1573 518.082 75.688L520.434 76.184C520.231 77.1227 519.778 77.864 519.074 78.408C518.37 78.952 517.511 79.224 516.498 79.224ZM521.661 79V70.52H524.045V79H521.661ZM522.861 69.592C522.509 69.592 522.215 69.48 521.981 69.256C521.757 69.032 521.645 68.7387 521.645 68.376C521.645 68.0027 521.757 67.7147 521.981 67.512C522.215 67.2987 522.509 67.192 522.861 67.192C523.202 67.192 523.49 67.2987 523.725 67.512C523.959 67.7147 524.077 68.0027 524.077 68.376C524.077 68.7387 523.959 69.032 523.725 69.256C523.49 69.48 523.202 69.592 522.861 69.592ZM529.499 79.224C528.688 79.224 527.968 79.0373 527.339 78.664C526.709 78.2907 526.219 77.7733 525.867 77.112C525.515 76.44 525.339 75.656 525.339 74.76C525.339 73.864 525.515 73.08 525.867 72.408C526.219 71.736 526.709 71.2187 527.339 70.856C527.968 70.4827 528.688 70.296 529.499 70.296C530.32 70.296 531.04 70.4827 531.659 70.856C532.288 71.2187 532.779 71.736 533.131 72.408C533.483 73.08 533.659 73.864 533.659 74.76C533.659 75.656 533.483 76.44 533.131 77.112C532.779 77.7733 532.288 78.2907 531.659 78.664C531.04 79.0373 530.32 79.224 529.499 79.224ZM529.499 77.096C530.032 77.096 530.448 76.904 530.747 76.52C531.056 76.1253 531.211 75.5387 531.211 74.76C531.211 73.9813 531.056 73.4 530.747 73.016C530.448 72.6213 530.032 72.424 529.499 72.424C528.965 72.424 528.544 72.6213 528.235 73.016C527.936 73.4 527.787 73.9813 527.787 74.76C527.787 75.5387 527.936 76.1253 528.235 76.52C528.544 76.904 528.965 77.096 529.499 77.096Z" fill="black"/>
<path d="M628.344 79L622.984 67.96H625.016L630.376 79H628.344ZM622.136 79V67.96H623.976V79H622.136ZM629.384 79V67.96H631.224V79H629.384ZM636.887 79.176C636.109 79.176 635.421 78.9947 634.823 78.632C634.226 78.2693 633.757 77.7573 633.415 77.096C633.085 76.424 632.919 75.6453 632.919 74.76C632.919 73.864 633.085 73.0853 633.415 72.424C633.757 71.7627 634.226 71.2507 634.823 70.888C635.421 70.5253 636.109 70.344 636.887 70.344C637.666 70.344 638.354 70.5253 638.951 70.888C639.549 71.2507 640.013 71.7627 640.343 72.424C640.685 73.0853 640.855 73.864 640.855 74.76C640.855 75.6453 640.685 76.424 640.343 77.096C640.013 77.7573 639.549 78.2693 638.951 78.632C638.354 78.9947 637.666 79.176 636.887 79.176ZM636.887 77.512C637.506 77.512 638.002 77.288 638.375 76.84C638.749 76.392 638.935 75.6987 638.935 74.76C638.935 73.8213 638.749 73.128 638.375 72.68C638.002 72.232 637.506 72.008 636.887 72.008C636.269 72.008 635.773 72.232 635.399 72.68C635.026 73.128 634.839 73.8213 634.839 74.76C634.839 75.6987 635.026 76.392 635.399 76.84C635.773 77.288 636.269 77.512 636.887 77.512ZM645.422 79.176C644.43 79.176 643.635 78.9787 643.038 78.584C642.441 78.1893 642.035 77.6027 641.822 76.824L643.566 76.28C643.726 76.7813 643.966 77.144 644.286 77.368C644.617 77.592 645.038 77.704 645.55 77.704C646.009 77.704 646.361 77.624 646.606 77.464C646.862 77.2933 646.99 77.064 646.99 76.776C646.99 76.4667 646.873 76.232 646.638 76.072C646.403 75.9013 646.099 75.7627 645.726 75.656C645.363 75.5387 644.974 75.4213 644.558 75.304C644.142 75.1867 643.747 75.0373 643.374 74.856C643.011 74.664 642.713 74.408 642.478 74.088C642.254 73.768 642.142 73.3467 642.142 72.824C642.142 72.12 642.419 71.5333 642.974 71.064C643.539 70.584 644.345 70.344 645.39 70.344C646.286 70.344 647.011 70.536 647.566 70.92C648.121 71.304 648.515 71.8587 648.75 72.584L647.054 73.144C646.894 72.6747 646.67 72.3387 646.382 72.136C646.094 71.9227 645.721 71.816 645.262 71.816C644.825 71.816 644.494 71.896 644.27 72.056C644.057 72.2053 643.95 72.3973 643.95 72.632C643.95 72.8987 644.067 73.1067 644.302 73.256C644.537 73.3947 644.841 73.5173 645.214 73.624C645.587 73.72 645.982 73.832 646.398 73.96C646.814 74.0773 647.209 74.2373 647.582 74.44C647.955 74.6427 648.259 74.92 648.494 75.272C648.729 75.6133 648.846 76.0613 648.846 76.616C648.846 77.352 648.547 77.9653 647.95 78.456C647.353 78.936 646.51 79.176 645.422 79.176ZM653.919 79.176C653.14 79.176 652.452 78.9947 651.855 78.632C651.257 78.2693 650.788 77.7573 650.447 77.096C650.116 76.424 649.951 75.6453 649.951 74.76C649.951 73.864 650.116 73.0853 650.447 72.424C650.788 71.7627 651.257 71.2507 651.855 70.888C652.452 70.5253 653.14 70.344 653.919 70.344C654.697 70.344 655.385 70.5253 655.983 70.888C656.58 71.2507 657.044 71.7627 657.375 72.424C657.716 73.0853 657.887 73.864 657.887 74.76C657.887 75.6453 657.716 76.424 657.375 77.096C657.044 77.7573 656.58 78.2693 655.983 78.632C655.385 78.9947 654.697 79.176 653.919 79.176ZM653.919 77.512C654.537 77.512 655.033 77.288 655.407 76.84C655.78 76.392 655.967 75.6987 655.967 74.76C655.967 73.8213 655.78 73.128 655.407 72.68C655.033 72.232 654.537 72.008 653.919 72.008C653.3 72.008 652.804 72.232 652.431 72.68C652.057 73.128 651.871 73.8213 651.871 74.76C651.871 75.6987 652.057 76.392 652.431 76.84C652.804 77.288 653.3 77.512 653.919 77.512ZM662.517 79.176C661.653 79.176 660.976 78.9413 660.485 78.472C659.994 78.0027 659.749 77.2987 659.749 76.36V68.76L661.621 68.392V76.072C661.621 76.5413 661.733 76.888 661.957 77.112C662.192 77.336 662.528 77.448 662.965 77.448C663.168 77.448 663.36 77.432 663.541 77.4C663.722 77.368 663.898 77.3307 664.069 77.288V79C663.845 79.064 663.61 79.1067 663.365 79.128C663.12 79.16 662.837 79.176 662.517 79.176ZM658.597 72.104V70.52H663.989V72.104H658.597ZM665.382 79V70.52H667.238V79H665.382ZM666.806 74.76C666.806 73.8533 666.924 73.0747 667.158 72.424C667.404 71.7627 667.75 71.2507 668.198 70.888C668.657 70.5253 669.217 70.344 669.878 70.344V72.44H669.158C668.572 72.44 668.102 72.5947 667.75 72.904C667.409 73.2027 667.238 73.7147 667.238 74.44L666.806 74.76ZM674.669 79.176C673.89 79.176 673.202 78.9947 672.605 78.632C672.007 78.2693 671.538 77.7573 671.197 77.096C670.866 76.424 670.701 75.6453 670.701 74.76C670.701 73.864 670.866 73.0853 671.197 72.424C671.538 71.7627 672.007 71.2507 672.605 70.888C673.202 70.5253 673.89 70.344 674.669 70.344C675.447 70.344 676.135 70.5253 676.733 70.888C677.33 71.2507 677.794 71.7627 678.125 72.424C678.466 73.0853 678.637 73.864 678.637 74.76C678.637 75.6453 678.466 76.424 678.125 77.096C677.794 77.7573 677.33 78.2693 676.733 78.632C676.135 78.9947 675.447 79.176 674.669 79.176ZM674.669 77.512C675.287 77.512 675.783 77.288 676.157 76.84C676.53 76.392 676.717 75.6987 676.717 74.76C676.717 73.8213 676.53 73.128 676.157 72.68C675.783 72.232 675.287 72.008 674.669 72.008C674.05 72.008 673.554 72.232 673.181 72.68C672.807 73.128 672.621 73.8213 672.621 74.76C672.621 75.6987 672.807 76.392 673.181 76.84C673.554 77.288 674.05 77.512 674.669 77.512ZM683.203 79.176C682.211 79.176 681.416 78.9787 680.819 78.584C680.222 78.1893 679.816 77.6027 679.603 76.824L681.347 76.28C681.507 76.7813 681.747 77.144 682.067 77.368C682.398 77.592 682.819 77.704 683.331 77.704C683.79 77.704 684.142 77.624 684.387 77.464C684.643 77.2933 684.771 77.064 684.771 76.776C684.771 76.4667 684.654 76.232 684.419 76.072C684.184 75.9013 683.88 75.7627 683.507 75.656C683.144 75.5387 682.755 75.4213 682.339 75.304C681.923 75.1867 681.528 75.0373 681.155 74.856C680.792 74.664 680.494 74.408 680.259 74.088C680.035 73.768 679.923 73.3467 679.923 72.824C679.923 72.12 680.2 71.5333 680.755 71.064C681.32 70.584 682.126 70.344 683.171 70.344C684.067 70.344 684.792 70.536 685.347 70.92C685.902 71.304 686.296 71.8587 686.531 72.584L684.835 73.144C684.675 72.6747 684.451 72.3387 684.163 72.136C683.875 71.9227 683.502 71.816 683.043 71.816C682.606 71.816 682.275 71.896 682.051 72.056C681.838 72.2053 681.731 72.3973 681.731 72.632C681.731 72.8987 681.848 73.1067 682.083 73.256C682.318 73.3947 682.622 73.5173 682.995 73.624C683.368 73.72 683.763 73.832 684.179 73.96C684.595 74.0773 684.99 74.2373 685.363 74.44C685.736 74.6427 686.04 74.92 686.275 75.272C686.51 75.6133 686.627 76.0613 686.627 76.616C686.627 77.352 686.328 77.9653 685.731 78.456C685.134 78.936 684.291 79.176 683.203 79.176Z" fill="black"/>
<path d="M765.136 79V67.96H767.072V79H765.136ZM766.032 74.552V72.792H772.096V74.552H766.032ZM766.032 69.752V67.96H772.736V69.752H766.032ZM776.95 79.176C776.107 79.176 775.414 78.8827 774.87 78.296C774.336 77.6987 774.07 76.8827 774.07 75.848V70.52H775.926V75.432C775.926 76.1253 776.096 76.6533 776.438 77.016C776.779 77.368 777.2 77.544 777.702 77.544C778.192 77.544 778.608 77.368 778.95 77.016C779.291 76.6533 779.462 76.1253 779.462 75.432H779.958C779.958 76.2107 779.83 76.8827 779.574 77.448C779.318 78.0027 778.96 78.4293 778.502 78.728C778.054 79.0267 777.536 79.176 776.95 79.176ZM779.462 79V70.52H781.318V79H779.462ZM788.713 79V74.088C788.713 73.3947 788.537 72.872 788.185 72.52C787.844 72.1573 787.422 71.976 786.921 71.976C786.42 71.976 785.993 72.1573 785.641 72.52C785.3 72.872 785.129 73.3947 785.129 74.088H784.649C784.649 73.3093 784.777 72.6427 785.033 72.088C785.289 71.5227 785.646 71.0907 786.105 70.792C786.564 70.4933 787.081 70.344 787.657 70.344C788.233 70.344 788.74 70.4773 789.177 70.744C789.614 71.0107 789.956 71.3947 790.201 71.896C790.446 72.3973 790.569 72.9893 790.569 73.672V79H788.713ZM783.273 79V70.52H785.129V79H783.273ZM796.027 79.176C795.248 79.176 794.566 78.9947 793.979 78.632C793.392 78.2693 792.934 77.7573 792.603 77.096C792.272 76.424 792.107 75.6453 792.107 74.76C792.107 73.864 792.272 73.0853 792.603 72.424C792.934 71.7627 793.392 71.2507 793.979 70.888C794.566 70.5253 795.248 70.344 796.027 70.344C796.902 70.344 797.648 70.5733 798.267 71.032C798.896 71.4907 799.323 72.152 799.547 73.016L797.755 73.512C797.627 72.9893 797.414 72.6107 797.115 72.376C796.827 72.1307 796.448 72.008 795.979 72.008C795.392 72.008 794.918 72.232 794.555 72.68C794.203 73.128 794.027 73.8213 794.027 74.76C794.027 75.6987 794.203 76.392 794.555 76.84C794.918 77.288 795.392 77.512 795.979 77.512C796.448 77.512 796.827 77.3947 797.115 77.16C797.414 76.9147 797.627 76.5253 797.755 75.992L799.563 76.472C799.339 77.3467 798.912 78.0187 798.283 78.488C797.654 78.9467 796.902 79.176 796.027 79.176ZM801.039 79V70.52H802.895V79H801.039ZM801.967 69.448C801.668 69.448 801.412 69.352 801.199 69.16C800.996 68.9573 800.895 68.7013 800.895 68.392C800.895 68.0613 800.996 67.8053 801.199 67.624C801.412 67.432 801.668 67.336 801.967 67.336C802.265 67.336 802.516 67.432 802.719 67.624C802.932 67.8053 803.039 68.0613 803.039 68.392C803.039 68.7013 802.932 68.9573 802.719 69.16C802.516 69.352 802.265 69.448 801.967 69.448ZM808.403 79.176C807.624 79.176 806.936 78.9947 806.339 78.632C805.742 78.2693 805.272 77.7573 804.931 77.096C804.6 76.424 804.435 75.6453 804.435 74.76C804.435 73.864 804.6 73.0853 804.931 72.424C805.272 71.7627 805.742 71.2507 806.339 70.888C806.936 70.5253 807.624 70.344 808.403 70.344C809.182 70.344 809.87 70.5253 810.467 70.888C811.064 71.2507 811.528 71.7627 811.859 72.424C812.2 73.0853 812.371 73.864 812.371 74.76C812.371 75.6453 812.2 76.424 811.859 77.096C811.528 77.7573 811.064 78.2693 810.467 78.632C809.87 78.9947 809.182 79.176 808.403 79.176ZM808.403 77.512C809.022 77.512 809.518 77.288 809.891 76.84C810.264 76.392 810.451 75.6987 810.451 74.76C810.451 73.8213 810.264 73.128 809.891 72.68C809.518 72.232 809.022 72.008 808.403 72.008C807.784 72.008 807.288 72.232 806.915 72.68C806.542 73.128 806.355 73.8213 806.355 74.76C806.355 75.6987 806.542 76.392 806.915 76.84C807.288 77.288 807.784 77.512 808.403 77.512ZM809.075 69.64H807.555L808.739 67.368H810.915L809.075 69.64ZM819.354 79V74.088C819.354 73.3947 819.178 72.872 818.826 72.52C818.484 72.1573 818.063 71.976 817.562 71.976C817.06 71.976 816.634 72.1573 816.282 72.52C815.94 72.872 815.77 73.3947 815.77 74.088H815.289C815.289 73.3093 815.418 72.6427 815.674 72.088C815.93 71.5227 816.287 71.0907 816.746 70.792C817.204 70.4933 817.722 70.344 818.298 70.344C818.874 70.344 819.38 70.4773 819.818 70.744C820.255 71.0107 820.596 71.3947 820.842 71.896C821.087 72.3973 821.21 72.9893 821.21 73.672V79H819.354ZM813.914 79V70.52H815.77V79H813.914Z" fill="black"/>
<path d="M902.584 79.176C901.613 79.176 900.755 78.9467 900.008 78.488C899.272 78.0187 898.696 77.3573 898.28 76.504C897.864 75.6507 897.656 74.6427 897.656 73.48C897.656 72.3067 897.864 71.2933 898.28 70.44C898.696 69.5867 899.272 68.9307 900.008 68.472C900.755 68.0133 901.608 67.784 902.568 67.784C903.357 67.784 904.061 67.9227 904.68 68.2C905.309 68.4773 905.837 68.8827 906.264 69.416C906.691 69.9493 906.989 70.6 907.16 71.368L905.224 71.88C905.085 71.1333 904.781 70.568 904.312 70.184C903.853 69.7893 903.261 69.592 902.536 69.592C901.672 69.592 900.979 69.928 900.456 70.6C899.933 71.272 899.672 72.232 899.672 73.48C899.672 74.7173 899.933 75.6773 900.456 76.36C900.979 77.032 901.677 77.368 902.552 77.368C903.299 77.368 903.896 77.1707 904.344 76.776C904.803 76.3813 905.117 75.8053 905.288 75.048L907.208 75.56C907.027 76.328 906.717 76.984 906.28 77.528C905.853 78.072 905.325 78.4827 904.696 78.76C904.067 79.0373 903.363 79.176 902.584 79.176ZM913.798 79C913.734 78.7227 913.68 78.44 913.638 78.152C913.606 77.864 913.59 77.5813 913.59 77.304V73.72C913.59 73.0693 913.424 72.6053 913.094 72.328C912.774 72.0507 912.39 71.912 911.942 71.912C911.526 71.912 911.168 72.0293 910.87 72.264C910.582 72.4987 910.374 72.856 910.246 73.336L908.486 72.84C908.71 72.0187 909.136 71.4 909.766 70.984C910.406 70.5573 911.168 70.344 912.054 70.344C913.12 70.344 913.952 70.6267 914.55 71.192C915.147 71.7573 915.446 72.536 915.446 73.528V77.112C915.446 77.7413 915.526 78.3707 915.686 79H913.798ZM910.806 79.176C910.038 79.176 909.43 78.9627 908.982 78.536C908.544 78.1093 908.326 77.56 908.326 76.888C908.326 76.248 908.539 75.6933 908.966 75.224C909.403 74.7547 910.07 74.44 910.966 74.28L914.038 73.768V75.096L911.606 75.592C911.094 75.688 910.731 75.8373 910.518 76.04C910.304 76.2427 910.198 76.4773 910.198 76.744C910.198 76.968 910.288 77.176 910.47 77.368C910.651 77.5493 910.934 77.64 911.318 77.64C911.68 77.64 912.032 77.5547 912.374 77.384C912.726 77.2133 913.014 76.968 913.238 76.648C913.472 76.3173 913.59 75.9227 913.59 75.464H914.118C914.118 76.2213 913.968 76.8827 913.67 77.448C913.371 78.0027 912.971 78.4293 912.47 78.728C911.968 79.0267 911.414 79.176 910.806 79.176ZM916.502 81.992C916.257 81.992 916.033 81.976 915.83 81.944C915.617 81.912 915.414 81.864 915.222 81.8V80.104C915.371 80.1573 915.526 80.2 915.686 80.232C915.846 80.2747 916.001 80.296 916.15 80.296C916.577 80.296 916.891 80.1947 917.094 79.992C917.297 79.7893 917.398 79.4693 917.398 79.032V70.52H919.254V79.08C919.254 80.0293 919.014 80.7493 918.534 81.24C918.065 81.7413 917.387 81.992 916.502 81.992ZM918.326 69.448C918.027 69.448 917.771 69.352 917.558 69.16C917.355 68.9573 917.254 68.7013 917.254 68.392C917.254 68.0613 917.355 67.8053 917.558 67.624C917.771 67.432 918.027 67.336 918.326 67.336C918.625 67.336 918.875 67.432 919.078 67.624C919.291 67.8053 919.398 68.0613 919.398 68.392C919.398 68.7013 919.291 68.9573 919.078 69.16C918.875 69.352 918.625 69.448 918.326 69.448ZM926.266 79C926.202 78.7227 926.149 78.44 926.106 78.152C926.074 77.864 926.058 77.5813 926.058 77.304V73.72C926.058 73.0693 925.893 72.6053 925.562 72.328C925.242 72.0507 924.858 71.912 924.41 71.912C923.994 71.912 923.637 72.0293 923.338 72.264C923.05 72.4987 922.842 72.856 922.714 73.336L920.954 72.84C921.178 72.0187 921.605 71.4 922.234 70.984C922.874 70.5573 923.637 70.344 924.522 70.344C925.589 70.344 926.421 70.6267 927.018 71.192C927.616 71.7573 927.914 72.536 927.914 73.528V77.112C927.914 77.7413 927.994 78.3707 928.154 79H926.266ZM923.274 79.176C922.506 79.176 921.898 78.9627 921.45 78.536C921.013 78.1093 920.794 77.56 920.794 76.888C920.794 76.248 921.008 75.6933 921.434 75.224C921.872 74.7547 922.538 74.44 923.434 74.28L926.506 73.768V75.096L924.074 75.592C923.562 75.688 923.2 75.8373 922.986 76.04C922.773 76.2427 922.666 76.4773 922.666 76.744C922.666 76.968 922.757 77.176 922.938 77.368C923.12 77.5493 923.402 77.64 923.786 77.64C924.149 77.64 924.501 77.5547 924.842 77.384C925.194 77.2133 925.482 76.968 925.706 76.648C925.941 76.3173 926.058 75.9227 926.058 75.464H926.586C926.586 76.2213 926.437 76.8827 926.138 77.448C925.84 78.0027 925.44 78.4293 924.938 78.728C924.437 79.0267 923.882 79.176 923.274 79.176Z" fill="black"/>
<path d="M1019.42 79L1015.83 67.96H1017.75L1021.48 79H1019.42ZM1011.16 79L1014.89 67.96H1016.66L1013.18 79H1011.16ZM1013.37 76.12V74.36H1019.26V76.12H1013.37ZM1026.97 79.176C1026.09 79.176 1025.38 78.8507 1024.84 78.2C1024.31 77.5493 1024.04 76.6267 1024.04 75.432V74.088C1024.04 72.8933 1024.31 71.9707 1024.84 71.32C1025.38 70.6693 1026.09 70.344 1026.97 70.344C1027.63 70.344 1028.21 70.52 1028.71 70.872C1029.21 71.224 1029.6 71.7307 1029.88 72.392C1030.16 73.0427 1030.3 73.832 1030.3 74.76C1030.3 75.6773 1030.16 76.4667 1029.88 77.128C1029.6 77.7893 1029.21 78.296 1028.71 78.648C1028.21 79 1027.63 79.176 1026.97 79.176ZM1022.62 81.8V70.52H1024.47V72.568L1024.22 74.76L1024.47 76.92V81.8H1022.62ZM1026.38 77.528C1026.97 77.528 1027.45 77.304 1027.82 76.856C1028.19 76.408 1028.38 75.7093 1028.38 74.76C1028.38 73.8107 1028.19 73.112 1027.82 72.664C1027.45 72.216 1026.97 71.992 1026.38 71.992C1025.78 71.992 1025.29 72.216 1024.92 72.664C1024.56 73.112 1024.38 73.8107 1024.38 74.76C1024.38 75.7093 1024.56 76.408 1024.92 76.856C1025.29 77.304 1025.78 77.528 1026.38 77.528ZM1036.2 79.176C1035.33 79.176 1034.62 78.8507 1034.08 78.2C1033.54 77.5493 1033.28 76.6267 1033.28 75.432V74.088C1033.28 72.8933 1033.54 71.9707 1034.08 71.32C1034.62 70.6693 1035.33 70.344 1036.2 70.344C1036.86 70.344 1037.45 70.52 1037.95 70.872C1038.45 71.224 1038.84 71.7307 1039.12 72.392C1039.39 73.0427 1039.53 73.832 1039.53 74.76C1039.53 75.6773 1039.39 76.4667 1039.12 77.128C1038.84 77.7893 1038.45 78.296 1037.95 78.648C1037.45 79 1036.86 79.176 1036.2 79.176ZM1031.85 81.8V70.52H1033.71V72.568L1033.45 74.76L1033.71 76.92V81.8H1031.85ZM1035.61 77.528C1036.21 77.528 1036.69 77.304 1037.05 76.856C1037.42 76.408 1037.61 75.7093 1037.61 74.76C1037.61 73.8107 1037.42 73.112 1037.05 72.664C1036.69 72.216 1036.21 71.992 1035.61 71.992C1035.01 71.992 1034.53 72.216 1034.16 72.664C1033.79 73.112 1033.61 73.8107 1033.61 74.76C1033.61 75.7093 1033.79 76.408 1034.16 76.856C1034.53 77.304 1035.01 77.528 1035.61 77.528Z" fill="black"/>
</svg>
